<svg id="Calque_1" data-name="Calque 1" xmlns="http://www.w3.org/2000/svg">
	<defs>
		<style>.cls-1{fill:#1ba1e2;}.cls-2{fill:#ff0097;}.cls-3,.cls-6{font-size:9px;}.cls-3,.cls-7{font-family:Lato-Light, Lato Light;}.cls-4{letter-spacing:-0.01em;}.cls-5{letter-spacing:0em;}.cls-10,.cls-6,.cls-9{font-family:Lato-Regular, Lato Regular;}.cls-6{letter-spacing:0.01em;}.cls-7{font-size:12px;}.cls-8{letter-spacing:-0.01em;}.cls-9{letter-spacing:0.01em;}
		</style>
	</defs>
	<polygon class="cls-1" points="26 26 13 26 13 0 21.19 0 26 0 26 9.62 26 26"/>
	<circle class="cls-2" cx="13" cy="13" r="13"/>
	<polygon class="cls-1" points="47 0 60 0 60 26 51.81 26 47 26 47 16.38 47 0"/>
	<circle class="cls-2" cx="60" cy="13" r="13"/>
	<path class="cls-1" d="M85,28V52H66V28H85m1-1H65V53H86V27Z" transform="translate(-39 -27)"/>
	<text class="cls-3" transform="translate(20.33 11.83)">Si
		<tspan class="cls-4" x="6.54" y="0">t</tspan>
		<tspan class="cls-5" x="9.47" y="0">e</tspan>
	</text>
	<text class="cls-6" transform="translate(25.33 20.67)">I
		<tspan class="cls-5" x="2.24" y="0">mmersif</tspan>
	</text>
	<polygon class="cls-1" points="173 26 160 26 160 0 168.19 0 173 0 173 9.62 173 26"/>
	<circle class="cls-2" cx="160" cy="13" r="13"/>
	<polygon class="cls-1" points="173 0 186 0 186 26 177.81 26 173 26 173 16.38 173 0"/>
	<circle class="cls-2" cx="186" cy="13" r="13"/>
	<text class="cls-7" transform="translate(177.65 16.83)">Si
		<tspan class="cls-8" x="8.72" y="0">t</tspan>
		<tspan x="12.62" y="0">e </tspan>
		<tspan class="cls-9" x="21.18" y="0">I</tspan>
		<tspan class="cls-10" x="24.17" y="0">mmersif</tspan>
	</text>
	<polygon class="cls-1" points="380 26 367 26 367 0 375.19 0 380 0 380 9.62 380 26"/>
	<circle class="cls-2" cx="367" cy="13" r="13"/>
	<polygon class="cls-1" points="380 0 393 0 393 26 384.81 26 380 26 380 16.38 380 0"/>
	<circle class="cls-2" cx="393" cy="13" r="13"/>
</svg>